<?xml version="1.0" encoding="utf-8"?>
<!DOCTYPE svg PUBLIC "-//W3C//DTD SVG 1.1//EN" "http://www.w3.org/Graphics/SVG/1.1/DTD/svg11.dtd">
<svg version="1.1" id="icon_ca" xmlns="http://www.w3.org/2000/svg" xmlns:xlink="http://www.w3.org/1999/xlink" x="0px" y="0px" width="36px" height="41px" enable-background="new 0 0 36 41" xml:space="preserve">
<g>
	<g>
		<path fill="#FFFFFF" d="M32.51,29.195c-1.19,1.586-2.708,2.908-4.437,3.911c1.728-1.56,2.791-3.458,3.112-5.858L20.953,12.224
			l-0.052,0.077l-0.056-0.077L5.643,34.553c1.363,1.43,2.931,2.666,4.656,3.661l10.603-15.568l7.135,10.482
			c-2.168,1.25-4.671,1.987-7.355,1.987c-2.147,0-4.179-0.459-6.022-1.277l-4.35,4.393c3.051,1.754,6.594,2.762,10.372,2.762
			c6.063,0,11.513-2.586,15.296-6.704L32.51,29.195z M5.928,20.494c0-8.061,6.618-14.617,14.753-14.617
			c3.533,0,6.774,1.236,9.316,3.295l3.312-4.902C29.816,1.596,25.439,0,20.681,0C9.26,0,0,9.177,0,20.494
			c0,5.421,2.122,10.349,5.591,14.014l2.716-6.065C6.805,26.152,5.928,23.424,5.928,20.494z"/>
	</g>
</g>
</svg>
