<?xml version="1.0" encoding="utf-8"?>
<!DOCTYPE svg PUBLIC "-//W3C//DTD SVG 1.1//EN" "http://www.w3.org/Graphics/SVG/1.1/DTD/svg11.dtd">
<svg version="1.1" id="icon_illustrator" xmlns="http://www.w3.org/2000/svg" xmlns:xlink="http://www.w3.org/1999/xlink" x="0px" y="0px"
	 width="63px" height="63px" enable-background="new 0 0 63 63" xml:space="preserve">
<g>
	<g>
		<path fill="#4b5059" d="M0,0v62.264h62.938V0H0z M58.149,57.474H4.789V4.79h53.36V57.474z M23.537,36.264h8.311l2.107,7.526h6.01
			l-9.188-26.685h-6.169L15.42,43.79h6.01L23.537,36.264z M27.693,20.979l3.202,11.863h-6.406L27.693,20.979z M46.52,24.632h-5.473
			V43.79h5.473V24.632z M44.119,21.95c1.564,0,2.832-1.269,2.832-2.833s-1.268-2.833-2.832-2.833c-1.563,0-2.832,1.269-2.832,2.833
			S42.556,21.95,44.119,21.95z"/>
	</g>
</g>
</svg>
