<?xml version="1.0" encoding="utf-8"?>
<!DOCTYPE svg PUBLIC "-//W3C//DTD SVG 1.1//EN" "http://www.w3.org/Graphics/SVG/1.1/DTD/svg11.dtd">
<svg version="1.1" id="icon_photoshop" xmlns="http://www.w3.org/2000/svg" xmlns:xlink="http://www.w3.org/1999/xlink" x="0px" y="0px"
	 width="63px" height="63px" enable-background="new 0 0 63 63" xml:space="preserve">
<g>
	<g>
		<g>
			<path fill="#4b5059" d="M0,0v61.579h62.938V0H0z M58.149,56.789H4.789V4.105h53.36V56.789z M21.232,35.234
				c0,0,0.079-0.018,0.217-0.049c0.358,0.029,0.719,0.049,1.086,0.049c4.756,0,8.797-2.47,10.287-5.912
				c0.193-0.395,0.349-0.86,0.453-1.418c0.104-0.49,0.16-0.992,0.16-1.506c0-0.072-0.004-0.144-0.006-0.215
				c0.088-3.334-0.722-4.443-1.488-5.688c-0.815-1.327-2.142-2.959-6.119-3.57c-3.978-0.612-10.402,0-10.402,0v26.928h5.812V35.234z
				 M21.232,20.802l1.97-0.103c2.8,0,5.067,2.652,5.067,5.547c0,2.894-2.268,4.934-5.067,4.934l-1.97-0.076V20.802z M40.547,35.54
				c4.697,2.204,4.168,4.36,0.842,4.345c-2.354-0.011-6.229-2.202-6.229-2.202v4.742c0,0,1.908,1.798,6.229,1.837
				c4.318,0.038,7.571-2.296,7.571-6.426c0-4.367-4.622-6.13-6.472-6.924c-3.931-1.684-2.396-3.825,0.276-3.825
				c2.371,0,5.239,1.645,5.239,1.645v-4.514c0,0-1.988-1.491-5.277-1.453s-7.588,1.951-7.588,6.312
				C35.139,32.901,37.448,34.086,40.547,35.54z"/>
		</g>
	</g>
</g>
</svg>
