<?xml version="1.0" encoding="utf-8"?>
<!DOCTYPE svg PUBLIC "-//W3C//DTD SVG 1.1//EN" "http://www.w3.org/Graphics/SVG/1.1/DTD/svg11.dtd">
<svg version="1.1" id="icon_interaction" xmlns="http://www.w3.org/2000/svg" xmlns:xlink="http://www.w3.org/1999/xlink" x="0px" y="0px" width="68px" height="60px" enable-background="new 0 0 68 60" xml:space="preserve">
<g>
	<path fill="#42B4A3" d="M32.442,44.913L32.442,44.913c12.221,0,22.127-9.908,22.127-22.127c0-2.506-0.437-4.904-1.203-7.15
		C41.199,19.815,32.442,31.33,32.442,44.913z"/>
	<g>
		<g>
			<path fill="#FFFFFF" d="M32.443,46.255c-12.753,0-23.129-10.375-23.129-23.127C9.314,10.375,19.69,0,32.443,0
				c12.752,0,23.126,10.375,23.126,23.128C55.569,35.88,45.195,46.255,32.443,46.255z M32.443,2
				c-11.65,0-21.129,9.478-21.129,21.128c0,11.649,9.479,21.127,21.129,21.127c11.648,0,21.126-9.478,21.126-21.127
				C53.569,11.478,44.092,2,32.443,2z"/>
		</g>
		<g>
			<g>
				<path fill="#FFFFFF" d="M1.143,31.634l-1.309-1.512c0.396-0.344,0.807-0.674,1.229-0.986l1.189,1.607
					C1.871,31.026,1.502,31.323,1.143,31.634z"/>
			</g>
			<g>
				<path fill="#FFFFFF" d="M31.154,42.54c-0.16-0.918-0.393-1.832-0.688-2.717l1.896-0.635c0.328,0.979,0.584,1.99,0.763,3.006
					L31.154,42.54z M29.784,38.084c-0.382-0.851-0.832-1.678-1.337-2.462l1.68-1.084c0.561,0.867,1.059,1.785,1.481,2.726
					L29.784,38.084z M27.356,34.103c-0.582-0.73-1.223-1.422-1.904-2.054l1.359-1.467c0.756,0.7,1.466,1.466,2.109,2.274
					L27.356,34.103z M24.021,30.848c-0.747-0.564-1.54-1.073-2.357-1.513l0.949-1.762c0.905,0.488,1.785,1.053,2.613,1.679
					L24.021,30.848z M3.809,29.709L2.787,27.99c0.891-0.529,1.828-0.992,2.785-1.377l0.746,1.855
					C5.456,28.815,4.611,29.232,3.809,29.709z M19.977,28.534c-0.859-0.354-1.755-0.646-2.661-0.863l0.467-1.945
					c1.009,0.243,2.004,0.565,2.958,0.961L19.977,28.534z M8.082,27.865l-0.549-1.924c0.993-0.283,2.018-0.492,3.045-0.619
					l0.246,1.984C9.899,27.422,8.977,27.609,8.082,27.865z M15.481,27.329c-0.799-0.105-1.61-0.159-2.415-0.159l-0.378,0.004
					l-0.045-2l0.423-0.004c0.892,0,1.793,0.06,2.677,0.177L15.481,27.329z"/>
			</g>
			<g>
				<path fill="#FFFFFF" d="M33.442,46h-2c0-1-0.018-1.032-0.053-1.502l1.994-0.112C33.423,44.907,33.442,45,33.442,46z"/>
			</g>
		</g>
		<g>
			<path fill="#FFFFFF" d="M33.414,45h-2c0-18,13.42-31.968,30.42-31.968v2C46.834,15.032,33.414,28,33.414,45z"/>
		</g>
		<circle fill="#FFFFFF" cx="62.001" cy="13.478" r="4.004"/>
	</g>
</g>
</svg>
