<?xml version="1.0" encoding="utf-8"?>
<!DOCTYPE svg PUBLIC "-//W3C//DTD SVG 1.1//EN" "http://www.w3.org/Graphics/SVG/1.1/DTD/svg11.dtd">
<svg version="1.1" id="icon_html" xmlns="http://www.w3.org/2000/svg" xmlns:xlink="http://www.w3.org/1999/xlink" x="0px" y="0px"
	 width="60px" height="65px" enable-background="new 0 0 60 65" xml:space="preserve">
<path fill="#4b5059" d="M0,0l5.388,58.678l23.349,6.32l23.348-6.32L57.473,0H0z M46.512,14.101l-0.327,3.646l-0.145,1.616h-0.022
	H28.727h-0.024h-10.13l0.656,7.364h9.474h0.024h14.727h1.934l-0.175,1.931L43.525,47.59l-0.107,1.215l-14.691,4.079v0.001
	l-0.032,0.009L13.99,48.805l-1.005-11.291h3.321h3.884l0.512,5.735l7.993,2.162l0.007-0.002l8.006-2.165l0.833-9.326h-8.814h-0.024
	H12.664L10.9,14.101l-0.172-1.93h17.974h0.024h17.957L46.512,14.101z"/>
</svg>
