<?xml version="1.0" encoding="utf-8"?>
<!DOCTYPE svg PUBLIC "-//W3C//DTD SVG 1.1//EN" "http://www.w3.org/Graphics/SVG/1.1/DTD/svg11.dtd">
<svg version="1.1" id="icon_strategy" xmlns="http://www.w3.org/2000/svg" xmlns:xlink="http://www.w3.org/1999/xlink" x="0px" y="0px"
	 width="62px" height="60px" enable-background="new 0 0 62 60" xml:space="preserve">
<g>
	<g>
		<path fill="#42B4A3" d="M34.768,25.544l15.644,15.645c3.644-4.143,5.873-9.561,5.873-15.511c0-6.02-2.281-11.492-6-15.651
			L34.768,25.544z"/>
	</g>
	<g>
		<path fill="#328E7E" d="M33.61,25l-0.04,0.366L49.329,9.807c-3.953-3.387-9.077-5.748-14.691-5.748
			C22.612,4.059,12.806,15,12.098,25H33.61z"/>
	</g>
	<g>
		<path fill="#FFFFFF" d="M34.157,48.801c-12.752,0-23.127-10.375-23.127-23.127S21.405,2.547,34.157,2.547
			s23.127,10.375,23.127,23.127S46.909,48.801,34.157,48.801z M34.157,4.547c-11.649,0-21.127,9.478-21.127,21.127
			s9.478,21.127,21.127,21.127s21.127-9.478,21.127-21.127S45.807,4.547,34.157,4.547z"/>
	</g>
	<path fill="#FFFFFF" d="M56.446,43.438c-0.898,0-1.719,0.306-2.386,0.805L35.364,25.548L53.275,7.636
		c0.508,0.232,1.067,0.371,1.663,0.371c2.21,0,4.004-1.793,4.004-4.004S57.148,0,54.938,0c-2.211,0-4.004,1.792-4.004,4.003
		c0,0.887,0.297,1.777,0.785,2.441L33.243,25H7.954c-0.265-2-1.923-3.548-3.949-3.548C1.794,21.452,0,23.206,0,25.417
		c0,2.21,1.794,4.062,4.005,4.062C5.697,29.479,7.137,28,7.723,27h26.105l18.969,18.887c-0.225,0.5-0.355,1.011-0.355,1.595
		c0,2.211,1.792,3.983,4.005,3.983c2.209,0,4.001-1.802,4.001-4.013S58.655,43.438,56.446,43.438z"/>
</g>
</svg>
