<?xml version="1.0" encoding="utf-8"?>
<!DOCTYPE svg PUBLIC "-//W3C//DTD SVG 1.1//EN" "http://www.w3.org/Graphics/SVG/1.1/DTD/svg11.dtd">
<svg version="1.1" id="icon_visual-design" xmlns="http://www.w3.org/2000/svg" xmlns:xlink="http://www.w3.org/1999/xlink" x="0px" y="0px" width="60px" height="60px" enable-background="new 0 0 60 60" xml:space="preserve">
<g>
	<circle fill="#42B4A3" cx="23.316" cy="30.258" r="3.995"/>
	<path fill="#42B4A3" d="M23.317,15.506c9.63,0,17.8,6.163,20.84,14.752c0.817-2.311,1.286-4.786,1.286-7.376
		c0-12.221-9.905-22.127-22.126-22.127c-12.22,0-22.128,9.906-22.128,22.127c0,2.59,0.468,5.065,1.286,7.376
		C5.517,21.669,13.688,15.506,23.317,15.506z"/>
	<g>
		<path fill="#FFFFFF" d="M23.317-0.245c-12.753,0-23.128,10.375-23.128,23.127s10.375,23.127,23.128,23.127
			c12.752,0,23.126-10.375,23.126-23.127S36.069-0.245,23.317-0.245z M23.317,1.755c11.648,0,21.126,9.478,21.126,21.127
			c0,1.504-0.164,2.97-0.465,4.386c-3.884-7.73-11.852-12.762-20.661-12.762c-8.811,0-16.78,5.032-20.663,12.765
			c-0.301-1.417-0.465-2.884-0.465-4.389C2.189,11.232,11.667,1.755,23.317,1.755z M23.317,44.009
			c-9.063,0-16.788-5.746-19.783-13.778c3.079-8.222,10.974-13.725,19.783-13.725S40.02,22.009,43.099,30.23
			C40.104,38.263,32.379,44.009,23.317,44.009z"/>
		<path fill="#FFFFFF" d="M23.316,25.263c-2.754,0-4.995,2.241-4.995,4.995s2.241,4.994,4.995,4.994s4.994-2.24,4.994-4.994
			S26.07,25.263,23.316,25.263z M23.316,33.252c-1.651,0-2.995-1.343-2.995-2.994s1.344-2.995,2.995-2.995s2.994,1.344,2.994,2.995
			S24.968,33.252,23.316,33.252z"/>
	</g>
</g>
</svg>
