<?xml version="1.0" encoding="utf-8"?>
<!DOCTYPE svg PUBLIC "-//W3C//DTD SVG 1.1//EN" "http://www.w3.org/Graphics/SVG/1.1/DTD/svg11.dtd">
<svg version="1.1" id="icon_wordpress" xmlns="http://www.w3.org/2000/svg" xmlns:xlink="http://www.w3.org/1999/xlink" x="0px" y="0px" width="65px" height="65px" enable-background="new 0 0 65 64.998" xml:space="preserve">
<path fill="#4b5059" d="M0,30.789c0,12.187,7.082,22.72,17.352,27.71L2.666,18.26C0.959,22.089,0,26.326,0,30.789z M51.567,29.236
	c0-3.807-1.367-6.44-2.538-8.491c-1.561-2.537-3.023-4.684-3.023-7.222c0-2.83,2.146-5.464,5.169-5.464
	c0.138,0,0.268,0.017,0.399,0.024C46.098,3.065,38.8,0,30.785,0C20.03,0,10.568,5.52,5.063,13.877
	c0.724,0.023,1.404,0.038,1.981,0.038c3.22,0,8.206-0.392,8.206-0.392c1.658-0.097,1.854,2.342,0.195,2.538
	c0,0-1.668,0.195-3.521,0.292l11.209,33.352l6.738-20.208l-4.797-13.144c-1.658-0.097-3.229-0.292-3.229-0.292
	c-1.659-0.099-1.465-2.635,0.195-2.538c0,0,5.083,0.392,8.108,0.392c3.219,0,8.205-0.392,8.205-0.392
	c1.659-0.097,1.854,2.342,0.196,2.538c0,0-1.671,0.195-3.522,0.292L46.154,49.45l3.07-10.26
	C50.786,35.188,51.567,31.871,51.567,29.236z M31.326,33.482l-9.237,26.844c2.758,0.812,5.675,1.255,8.696,1.255
	c3.586,0,7.024-0.619,10.224-1.745c-0.081-0.133-0.158-0.272-0.22-0.425L31.326,33.482z M57.8,16.019
	c0.133,0.98,0.207,2.032,0.207,3.166c0,3.123-0.585,6.636-2.342,11.027l-9.402,27.189c9.153-5.336,15.308-15.253,15.308-26.612
	C61.57,25.437,60.202,20.403,57.8,16.019z"/>
</svg>
