<?xml version="1.0" encoding="utf-8"?>
<!DOCTYPE svg PUBLIC "-//W3C//DTD SVG 1.1//EN" "http://www.w3.org/Graphics/SVG/1.1/DTD/svg11.dtd">
<svg version="1.1" id="icon_ux-ui-design" xmlns="http://www.w3.org/2000/svg" xmlns:xlink="http://www.w3.org/1999/xlink" x="0px" y="0px" width="60px" height="60px" enable-background="new 0 0 60 60" xml:space="preserve">
<g>
	<g>
		<circle fill="#42B4A3" cx="25.296" cy="26.771" r="13.051"/>
	</g>
	<polygon fill="#FFFFFF" points="41.14,41.091 44.854,46.614 42.369,48.279 38.631,42.702 35.615,46.299 33.769,32.771 
		45.602,39.689 	"/>
	<g>
		<path fill="#FFFFFF" d="M30,4.943V0H20v4.972c-1,0.114-1.002,0.232-1.413,0.368l0.714,1.898C19.504,7.171,19,7.117,20,7.056V10h10
			V6.933C39,8.977,45.757,17.484,45.757,27h2C47.757,16.389,40,7.012,30,4.943z M28,8h-6V2h6V8z"/>
		<path fill="#FFFFFF" d="M9.964,13.267l-1.502-1.32c-0.665,0.758-1.284,1.562-1.838,2.392l1.662,1.111
			C8.792,14.692,9.356,13.958,9.964,13.267z"/>
		<path fill="#FFFFFF" d="M13.35,10.18l-1.178-1.617c-0.808,0.589-1.587,1.239-2.315,1.934l1.381,1.447
			C11.901,11.31,12.612,10.716,13.35,10.18z"/>
		<path fill="#FFFFFF" d="M17.325,7.901l-0.799-1.834c-0.92,0.401-1.821,0.867-2.679,1.384l1.031,1.713
			C15.663,8.692,16.486,8.268,17.325,7.901z"/>
		<path fill="#FFFFFF" d="M7.335,17.02l-1.754-0.959c-0.482,0.881-0.909,1.802-1.269,2.739l1.867,0.717
			C6.508,18.663,6.896,17.822,7.335,17.02z"/>
		<path fill="#FFFFFF" d="M5.79,32H9V22H5.418c0.061-0.248,0.113-0.498,0.183-0.743l-1.924-0.545C3.557,21.136,3.455,21.566,3.36,22
			H0v10h3.638C6.009,42.049,15,49.279,26,49.279v-2C16,47.279,8.105,40.912,5.79,32z M2,24h5v6H2V24z"/>
	</g>
</g>
</svg>
