<?xml version="1.0" encoding="utf-8"?>
<!DOCTYPE svg PUBLIC "-//W3C//DTD SVG 1.1//EN" "http://www.w3.org/Graphics/SVG/1.1/DTD/svg11.dtd">
<svg version="1.1" id="icon_web" xmlns="http://www.w3.org/2000/svg" xmlns:xlink="http://www.w3.org/1999/xlink" x="0px" y="0px" width="60px" height="60px" enable-background="new 0 0 60 60" xml:space="preserve">
<g>
	<g>
		<path fill="#42B4A3" d="M31,30.624C31,34.698,27.698,38,23.625,38h-0.25C19.302,38,16,34.698,16,30.624V17.376
			C16,13.302,19.302,10,23.375,10h0.25C27.698,10,31,13.302,31,17.376V30.624z"/>
		<line fill="#42B4A3" x1="24" y1="17" x2="24" y2="21"/>
	</g>
	<g>
		<path fill="#FFFFFF" d="M23.129,46.254C10.376,46.254,0,35.879,0,23.127S10.376,0,23.129,0c12.752,0,23.126,10.375,23.126,23.127
			S35.881,46.254,23.129,46.254z M23.129,2C11.479,2,2,11.478,2,23.127s9.479,21.127,21.129,21.127
			c11.648,0,21.126-9.478,21.126-21.127S34.777,2,23.129,2z"/>
	</g>
	<g>
		<g>
			<path fill="#FFFFFF" d="M32,30.624C32,35.25,28.25,39,23.625,39h-0.25C18.75,39,15,35.25,15,30.624V17.376
				C15,12.75,18.75,9,23.375,9h0.25C28.25,9,32,12.75,32,17.376V30.624z M30,17.376C30,13.854,27.146,11,23.625,11h-0.25
				C19.854,11,17,13.854,17,17.376v13.248C17,34.146,19.854,37,23.375,37h0.25C27.146,37,30,34.146,30,30.624V17.376z"/>
		</g>
		<g>
			<path fill="#FFFFFF" d="M24,22.245c-0.553,0-1-0.447-1-1v-4c0-0.553,0.447-1,1-1s1,0.447,1,1v4
				C25,21.798,24.553,22.245,24,22.245z"/>
		</g>
	</g>
</g>
</svg>
