<?xml version="1.0" encoding="utf-8"?>
<!DOCTYPE svg PUBLIC "-//W3C//DTD SVG 1.1//EN" "http://www.w3.org/Graphics/SVG/1.1/DTD/svg11.dtd">
<svg version="1.1" id="icon_concept-work" xmlns="http://www.w3.org/2000/svg" xmlns:xlink="http://www.w3.org/1999/xlink" x="0px" y="0px" width="66px" height="60px" enable-background="new 0 0 66 60" xml:space="preserve">
<g>
	<g>
		<path fill-rule="evenodd" clip-rule="evenodd" fill="#42B4A3" d="M41.175,22l6.252-11.704c-4.031-5.387-10.435-8.474-17.669-8.474
			C19.059,1.822,10.136,9,8.106,20h11.227v17h-7.189c4.032,6,10.411,8.823,17.614,8.823c12.203,0,22.096-10.039,22.096-22.269
			c0-0.482-0.042-0.554-0.072-1.554H41.175z"/>
	</g>
	<g>
		<polygon fill="#328E7E" points="41.175,22 51.539,2.392 61.904,22 		"/>
	</g>
	<path fill="#FFFFFF" d="M63.564,23L51.539,0.126l-4.444,8.345C42.7,3.428,36.452,0.658,29.69,0.658C18.828,0.658,9.364,8,7.089,19
		H0.333v19h11.049c4.416,5,11.066,8.883,18.309,8.883c12.752,0,23.127-10.312,23.127-23.064c0-0.296-0.019-0.819-0.03-0.819H63.564z
		 M60.244,21h-17.41l8.705-16.469L60.244,21z M2.333,21h16v15h-16V21z M50.817,23.756c0,11.649-9.478,21.19-21.127,21.19
		C23.608,44.946,17.985,42,13.981,38h6.352V19H9.148C11.385,9,19.912,2.627,29.69,2.627c6.437,0,12.363,2.906,16.396,7.879
		L39.516,23h11.271C50.8,23,50.817,23.46,50.817,23.756z"/>
</g>
</svg>
