<?xml version="1.0" encoding="utf-8"?>
<!DOCTYPE svg PUBLIC "-//W3C//DTD SVG 1.1//EN" "http://www.w3.org/Graphics/SVG/1.1/DTD/svg11.dtd">
<svg version="1.1" id="icon_art-direction" xmlns="http://www.w3.org/2000/svg" xmlns:xlink="http://www.w3.org/1999/xlink" x="0px" y="0px" width="60px" height="60px" enable-background="new 0 0 60 60" xml:space="preserve">
<g>
	<g>
		<ellipse fill-rule="evenodd" clip-rule="evenodd" fill="#42B4A3" cx="23.128" cy="23.125" rx="12.212" ry="12.242"/>
	</g>
	<g>
		<path fill="#FFFFFF" d="M23.129,0C10.376,0,0,10.375,0,23.127s10.376,23.127,23.129,23.127c12.752,0,23.126-10.375,23.126-23.127
			S35.881,0,23.129,0z M23.129,44.254C11.479,44.254,2,34.776,2,23.127S11.479,2,23.129,2c11.648,0,21.126,9.478,21.126,21.127
			S34.777,44.254,23.129,44.254z"/>
		<path fill="#FFFFFF" d="M23.129,10.236c-7.108,0-12.891,5.782-12.891,12.891c0,7.106,5.782,12.889,12.891,12.889
			c7.106,0,12.889-5.782,12.889-12.889C36.018,16.019,30.235,10.236,23.129,10.236z M23.129,34.016
			c-6.005,0-10.891-4.885-10.891-10.889c0-6.005,4.886-10.891,10.891-10.891c6.004,0,10.889,4.886,10.889,10.891
			C34.018,29.131,29.133,34.016,23.129,34.016z"/>
		<circle fill="#FFFFFF" cx="23.129" cy="23.125" r="4.832"/>
	</g>
</g>
</svg>
