<?xml version="1.0" encoding="utf-8"?>
<!DOCTYPE svg PUBLIC "-//W3C//DTD SVG 1.1//EN" "http://www.w3.org/Graphics/SVG/1.1/DTD/svg11.dtd">
<svg version="1.1" id="icon_afm" xmlns="http://www.w3.org/2000/svg" xmlns:xlink="http://www.w3.org/1999/xlink" x="0px" y="0px" width="44px" height="44px" enable-background="new 0 0 44 44" xml:space="preserve">
<path fill="#FFFFFF" d="M5.031,21.493c-0.31,0.725-0.567,1.496-0.771,2.318c0.707,0.232,1.431,0.256,2.162,0.113
	C5.888,23.157,5.423,22.347,5.031,21.493z M11.056,14.872c0.121,2.064-0.005,4.34-0.359,6.602c2.576-2.32,4.986-5.828,6.76-8.742
	C15.173,13.083,12.985,13.784,11.056,14.872z M7.815,20.647c0.328-1.332,0.569-2.672,0.696-3.975
	c-0.657,0.582-1.263,1.227-1.806,1.939C7.017,19.323,7.39,20.003,7.815,20.647z M3.303,20.509c-0.544,0.264-1.125,0.486-1.688,0.6
	c0.244,0.553,0.564,1.072,0.969,1.545C2.776,21.901,3.02,21.187,3.303,20.509z M16.239,5.565c-1.029,2.195-2.708,4.607-4.507,6.83
	c1.803-0.75,3.753-1.232,5.763-1.477C16.807,9.097,16.336,7.263,16.239,5.565z M10.212,10.214c2.319-3.117,4.186-6.488,3.965-8.898
	C11.399,2.638,9.013,4.634,7.435,7.29c0.848,0.246,1.643,0.818,2.303,1.814C9.913,9.446,10.071,9.817,10.212,10.214z M5.79,15.396
	c0.844-0.871,1.762-1.885,2.675-2.975c-0.14-0.994-0.382-1.926-0.742-2.777c-0.279-0.494-0.602-0.85-0.951-1.098
	c-0.429,0.926-0.765,1.918-0.995,2.982C5.599,12.892,5.612,14.181,5.79,15.396z M31.442,10.835
	c-3.062-2.086-6.295-4.637-8.563-7.266c-0.503,2.119-1.681,4.432-2.405,5.922l-0.654,1.258c3.894-0.109,7.864,0.641,11.273,2.127
	l0.13,0.066C31.251,12.198,31.321,11.489,31.442,10.835z M37.159,31.269c-0.308,0.975-0.694,1.93-1.143,2.848
	c0.291,0.73,0.646,1.338,1.077,1.617c0.302-0.359,0.591-0.734,0.869-1.123c0.642-1.008,1.133-2.023,1.483-3.037
	C38.708,31.589,37.94,31.478,37.159,31.269z M37.808,28.392c-0.057,0.436-0.135,0.871-0.229,1.305
	c0.782,0.238,1.549,0.379,2.281,0.395c0.303-1.4,0.344-2.785,0.158-4.129C39.38,26.843,38.638,27.653,37.808,28.392z M23.821,19.224
	c2.396-1.361,4.996-1.994,7.669-1.418c-0.137-1.098-0.234-2.186-0.269-3.229L30.96,14.44c-3.434-1.479-7.494-2.186-11.418-1.936
	c1.244,2.504,2.787,4.834,4.099,6.51L23.821,19.224z M15.845,27.085c1.84-2.711,4.145-5.293,6.73-7.08
	c-1.374-1.826-2.893-4.229-4.1-6.781c-1.934,3.438-4.744,7.881-7.828,10.613C12.163,25.144,13.938,26.231,15.845,27.085z
	 M37.093,29.536c0.043-0.211,0.081-0.424,0.112-0.637c-0.192,0.158-0.39,0.311-0.591,0.459
	C36.774,29.421,36.935,29.481,37.093,29.536z M35.8,33.522c0.344-0.775,0.646-1.578,0.893-2.391
	c-0.543-0.174-1.091-0.389-1.642-0.641C35.214,31.294,35.454,32.472,35.8,33.522z M39.136,20.479
	c0.724,0.006,1.41,0.123,2.012,0.385c0.689-1.639,1-3.477,0.83-5.48c-1.084,0.746-3.453-0.322-4.538-0.863
	c-1.208-0.66-2.714-1.541-4.335-2.584c-0.15,0.588-0.252,1.236-0.314,1.924C35.524,15.614,37.724,17.897,39.136,20.479z
	 M36.254,20.937c0.56-0.17,1.129-0.299,1.692-0.377c-1.286-1.973-3.083-3.715-5.227-5.102c-0.005,0.881,0.039,1.803,0.117,2.742
	c0.263,0.094,0.525,0.205,0.789,0.324C34.733,19.206,35.599,20.024,36.254,20.937z M33.362,22.308
	c0.326-0.234,0.617-0.422,0.865-0.564c0.298-0.15,0.608-0.289,0.93-0.42c-0.336-0.309-0.713-0.596-1.135-0.855
	c-0.326-0.145-0.653-0.26-0.98-0.352C33.135,20.854,33.245,21.589,33.362,22.308z M29.949,25.169
	c0.88-0.824,1.716-1.547,2.451-2.133c-0.216-1.012-0.423-2.072-0.604-3.148c-1.98-0.182-3.95,0.482-5.815,1.65
	C27.127,22.696,28.485,23.968,29.949,25.169z M25.902,29.421c0.934-1.107,1.92-2.166,2.886-3.129
	c-1.531-1.301-2.93-2.664-4.076-3.869c-2.067,1.58-3.965,3.711-5.555,5.885C21.382,28.966,23.686,29.341,25.902,29.421z
	 M22.075,42.466c-0.869-0.812-1.259-1.83-1.286-2.971c-2.097-0.648-4.253-1.352-6.352-1.93c-0.224,1.176-0.227,2.32,0.163,3.291
	c1.166,0.525,2.383,0.945,3.629,1.246C19.508,42.341,20.796,42.46,22.075,42.466z M30.149,27.399
	c-0.664,0.613-1.354,1.287-2.037,2.002l0.255-0.014c1.188-0.16,2.344-0.42,3.449-0.766C31.252,28.233,30.695,27.823,30.149,27.399z
	 M32.868,25.108c-0.445,0.332-0.945,0.732-1.478,1.188c0.699,0.523,1.415,1.02,2.136,1.467
	C33.327,26.987,33.101,26.089,32.868,25.108z M36.626,23.331c-0.938,0.238-1.848,0.594-2.621,0.996l-0.249,0.154
	c0.224,1.143,0.45,2.199,0.652,3.107c1.047-0.51,2.019-1.113,2.895-1.805C37.204,24.921,36.987,24.091,36.626,23.331z
	 M39.233,23.019c-0.591-0.023-1.213,0.031-1.837,0.143c0.236,0.691,0.39,1.416,0.469,2.158c0.587-0.514,1.124-1.066,1.604-1.664
	C39.396,23.444,39.317,23.231,39.233,23.019z M31.608,39.956l0.326,0.035c1.722-0.961,3.301-2.193,4.668-3.695
	c-0.396-0.234-0.738-0.711-1.036-1.314c-0.815,1.488-1.786,2.84-2.82,3.941C32.38,39.284,32.001,39.63,31.608,39.956z
	 M22.481,37.706c3.777,1.02,7.089,1.957,8.742,2.203c0.479-0.395,0.936-0.816,1.373-1.27c0.961-1.078,1.932-2.525,2.748-4.15
	c-0.486-1.17-0.832-2.625-1.066-3.676c-1.939,1.014-4.121,1.73-6.445,2.098c-0.909,0.078-1.832,0.102-2.761,0.078
	C23.905,34.571,22.96,36.196,22.481,37.706z M14.914,35.798c2.036,0.455,4.159,1,6.194,1.539c0.41-1.416,1.193-2.938,2.189-4.457
	c-2.119-0.203-4.24-0.662-6.263-1.363c-0.731,1.221-1.33,2.371-1.774,3.35C15.14,35.171,15.022,35.481,14.914,35.798z M6.848,34.628
	c1.384-0.014,3.122,0.199,5.039,0.549c0.095-0.383,0.203-0.766,0.323-1.139c0.436-1.191,1.023-2.492,1.737-3.82
	c-1.696-0.852-3.272-1.891-4.655-3.105c-0.85,2.402-1.982,4.529-3.377,6.037C6.199,33.659,6.51,34.151,6.848,34.628z M11.587,36.868
	c-1.139-0.238-2.244-0.408-3.295-0.477c1.008,1.08,2.158,2.045,3.414,2.875C11.527,38.509,11.505,37.698,11.587,36.868z
	 M28.866,41.358c-2.074-0.172-4.344-0.748-6.719-1.451c0.043,0.955,0.381,1.82,1.1,2.529C25.175,42.341,27.067,41.978,28.866,41.358
	z M4.011,26.12c0.061,1.105,0.184,2.162,0.416,3.18c0.517-0.938,1.013-1.943,1.469-2.998c-0.61,0.062-1.221,0.016-1.824-0.164
	L4.011,26.12z M37.824,7.47c1.19,1.379,2.219,2.922,3.04,4.615c-1.232-2.078-2.925-3.564-5.163-3.381
	c-0.757,0.217-1.341,0.678-1.784,1.324c1.461,1.135,2.947,2.188,4.428,3.131c0.719,0.424,2.528,1.438,3.408,1.029
	c0.12,0.338,0.234,0.682,0.341,1.027c0.237,0.773,0.427,1.551,0.573,2.328c0.023,1.4-0.152,2.732-0.5,3.988
	c0.343,0.328,0.626,0.738,0.835,1.246c-0.055,0.904-0.166,1.801-0.331,2.68c-0.219-0.85-0.672-1.445-1.275-1.834
	c-0.207,0.449-0.438,0.883-0.693,1.305c0.281,1.67,0.242,3.4-0.166,5.143c0.26-0.021,0.518-0.061,0.767-0.121
	c-0.216,0.508-0.454,1.008-0.71,1.498c-0.161,0.033-0.321,0.061-0.487,0.08c-0.345,0.973-0.81,1.947-1.403,2.914
	c-2.638,3.502-6.366,6.23-10.881,7.613c-5.27,1.609-10.681,1.098-15.314-1.047c-2.295-1.207-4.336-2.766-5.986-4.631
	c-0.157,0.012-0.313,0.023-0.467,0.041c-0.461-0.477-0.898-0.973-1.312-1.492c0.156-0.059,0.33-0.105,0.514-0.148
	c-0.145-0.205-0.284-0.414-0.42-0.627c-0.146,0.115-0.296,0.223-0.445,0.322c-0.6-0.789-1.15-1.627-1.64-2.508
	c0.188-0.258,0.376-0.531,0.561-0.814c-0.714-1.855-1.093-3.863-1.052-5.982c-0.473-0.49-0.861-1.002-1.179-1.533
	c0.06,2.053,0.29,4.188,0.719,6.4C0.642,27.396,0,24.476,0,21.405c0-4.381,1.308-8.459,3.556-11.861
	c-1.154,2.83-1.98,5.998-2.322,9.459c0.725-0.283,1.451-0.766,1.944-1.135c0.19-0.158,0.407-0.348,0.646-0.559
	c-0.185-1.357-0.193-2.795,0.002-4.303c0.381-1.787,1.019-3.418,1.867-4.883C5.358,8.079,5.009,8.104,4.66,8.179
	c0.247-0.311,0.503-0.617,0.767-0.916C5.72,7.196,6.015,7.153,6.308,7.147c0.836-1.234,1.831-2.334,2.945-3.295
	c1.79-1.242,3.801-2.234,5.998-2.906c0.6-0.184,1.203-0.342,1.806-0.469c0.07,0.18,0.122,0.367,0.157,0.564
	c0.152-0.242,0.324-0.477,0.516-0.697c0.361-0.064,0.721-0.121,1.082-0.166c-2.363,2.445-1.755,6.514-0.122,10.455
	c0.468-0.822,0.853-1.529,1.138-2.061c0.776-1.533,1.947-3.898,2.295-5.932c-0.67-0.873-1.221-1.748-1.609-2.617
	c1.076-0.051,2.145-0.021,3.2,0.088c2.44,3.004,5.361,5.926,8.458,8.51c0.584-1.096,1.477-1.828,2.769-2.02
	c1.078,0.006,2.048,0.34,2.907,0.902L37.824,7.47z M25.636,0.396c1.83,0.357,3.6,0.951,5.264,1.758
	c0.227,0.109,0.451,0.223,0.674,0.34c1.822,0.963,3.508,2.184,4.995,3.637c-0.839-0.178-1.684-0.406-2.52-0.678
	C30.629,4.343,27.549,2.55,25.636,0.396z"/>
</svg>
