<?xml version="1.0" encoding="utf-8"?>
<!DOCTYPE svg PUBLIC "-//W3C//DTD SVG 1.1//EN" "http://www.w3.org/Graphics/SVG/1.1/DTD/svg11.dtd">
<svg version="1.1" id="icon_sapo" xmlns="http://www.w3.org/2000/svg" xmlns:xlink="http://www.w3.org/1999/xlink" x="0px" y="0px" width="50px" height="31px" enable-background="new 0 0 50 31" xml:space="preserve">
<g>
	<g>
		<path fill="#FFFFFF" d="M36.092,30.014l12.632-18.389L19.488,30.014H36.092z M3.633,30.014h14.288L0,19.044L3.633,30.014z
			 M3.921,12.419l-3.889,5.676l17.84,10.921L3.921,12.419z M10.442,18.894l8.451,10.049L36.857,0.325L10.442,18.894z M49.006,10.47
			L38.04,0L20.026,28.698L49.006,10.47z M39.229,3.959h0.047c0.96,0.013,1.858,0.395,2.527,1.075c0.671,0.682,1.032,1.58,1.021,2.53
			c-0.026,1.937-1.637,3.513-3.593,3.513h-0.048c-0.96-0.013-1.857-0.395-2.527-1.076c-0.671-0.68-1.031-1.579-1.02-2.529
			C35.661,5.534,37.271,3.959,39.229,3.959z M37.102,9.57c0.553,0.562,1.296,0.878,2.089,0.888l0.04,0.001
			c1.616,0,2.947-1.302,2.969-2.902c0.01-0.786-0.288-1.528-0.843-2.091c-0.553-0.562-1.296-0.879-2.089-0.89h-0.039
			c-1.616,0-2.948,1.304-2.969,2.903C36.249,8.265,36.548,9.007,37.102,9.57z M39.229,5.893c0.906,0,1.641,0.728,1.641,1.626
			c0,0.896-0.734,1.624-1.641,1.624c-0.907,0-1.642-0.729-1.642-1.624C37.588,6.62,38.322,5.893,39.229,5.893z"/>
	</g>
</g>
</svg>
