<?xml version="1.0" encoding="utf-8"?>
<!DOCTYPE svg PUBLIC "-//W3C//DTD SVG 1.1//EN" "http://www.w3.org/Graphics/SVG/1.1/DTD/svg11.dtd">
<svg version="1.1" id="icon_dribbble" xmlns="http://www.w3.org/2000/svg" xmlns:xlink="http://www.w3.org/1999/xlink" x="0px" y="0px" width="60px" height="65px" enable-background="new 0 0 60 65" xml:space="preserve">
<path fill="#FFFFFF" d="M23.129,0C10.376,0,0,10.375,0,23.127C0,35.88,10.376,46.255,23.129,46.255
	c12.752,0,23.126-10.375,23.126-23.128C46.255,10.375,35.881,0,23.129,0z M44.176,24.685C41.09,23.567,37.885,23,34.629,23
	c-2.077,0-4.119,0.235-6.112,0.679c-0.776-1.718-1.586-3.424-2.429-5.119c4.992-2.091,9.564-5.029,13.459-8.7
	c2.938,3.63,4.708,8.244,4.708,13.268C44.255,23.653,44.214,24.169,44.176,24.685z M38.215,8.365
	c-3.757,3.554-8.181,6.394-13.016,8.401c-2.433-4.731-5.135-9.362-8.083-13.883C19.023,2.315,21.039,2,23.129,2
	C29.036,2,34.377,4.444,38.215,8.365z M15.18,3.565c2.975,4.533,5.698,9.18,8.147,13.928c-4.944,1.799-10.257,2.762-15.676,2.762
	c-1.802,0-3.604-0.128-5.382-0.333C3.409,12.49,8.414,6.324,15.18,3.565z M2,23.127c0-0.404,0.038-0.8,0.061-1.199
	c1.846,0.214,3.72,0.327,5.591,0.327c5.729,0,11.347-1.034,16.567-2.963c0.81,1.623,1.588,3.256,2.336,4.899
	c-7.071,2.116-13.383,7.01-18.067,14.134C4.496,34.479,2,29.094,2,23.127z M10.005,39.655c4.491-6.931,10.574-11.664,17.376-13.628
	c2.249,5.13,4.198,10.356,5.829,15.662c-2.998,1.635-6.433,2.565-10.081,2.565C18.17,44.255,13.613,42.526,10.005,39.655z
	 M34.965,40.617c-1.588-5.102-3.456-10.132-5.607-15.072C31.081,25.188,32.842,25,34.629,25c3.174,0,6.295,0.588,9.295,1.731
	C42.929,32.487,39.617,37.458,34.965,40.617z"/>
</svg>
