<?xml version="1.0" encoding="utf-8"?>
<!DOCTYPE svg PUBLIC "-//W3C//DTD SVG 1.1//EN" "http://www.w3.org/Graphics/SVG/1.1/DTD/svg11.dtd">
<svg version="1.1" id="icon_digital-experiences" xmlns="http://www.w3.org/2000/svg" xmlns:xlink="http://www.w3.org/1999/xlink" x="0px" y="0px"
	 width="60px" height="60px" enable-background="new 0 0 60 60" xml:space="preserve">
<g>
	<path fill="#42B4A3" d="M41,30H17v3.544v2.074v0.369C17,36.273,17.23,36,16.915,36h-1.686c0,0-1.474,2-3.162,0
		c-0.831,0-1.58,0-1.58,0C10.038,36,10,36.064,10,35.618V24.625C10,24.182,10.038,23,10.487,23h1.302h0.584L13,22.634V10.947
		C13,10.107,13.425,10,14.273,10h26.206c-4.052-6-10.31-8.713-17.352-8.713C10.908,1.287,1,11.051,1,23.271
		c0,12.219,9.908,22.193,22.128,22.193c6.512,0,12.241-3.234,16.284-7.234L41,37.078V30z"/>
	<g>
		<path fill="#FFFFFF" d="M23.128,46.254C10.375,46.254,0,35.879,0,23.127S10.375,0,23.128,0c7.384,0,14.385,3.571,18.728,9.554
			c0.249,0.23,0.71,0.662,0.609,1.346l-1.979-0.289c-0.039,0.267,0.077,0.465,0.126,0.519c-0.186-0.176-0.295-0.288-0.377-0.401
			C36.27,5.263,29.873,2,23.128,2C11.478,2,2,11.478,2,23.127s9.478,21.127,21.128,21.127c6.466,0,12.777-3.131,16.885-8.376
			l1.574,1.232C37.104,42.836,30.203,46.254,23.128,46.254z"/>
	</g>
	<g>
		<path fill-rule="evenodd" clip-rule="evenodd" fill="#FFFFFF" d="M54.986,15.569H44.433v-4.622c0-0.84-0.686-1.523-1.531-1.523
			H14.273c-0.849,0-1.536,0.684-1.536,1.523v11.401h-2.25c-0.449,0-0.81,0.357-0.81,0.802v13.942c0,0.447,0.36,0.806,0.81,0.806
			h6.428c0.443,0,0.81-0.358,0.81-0.806v-4.278h4.214h2.047v2.543l-2.047,2.034v0.507h13.294v-0.507l-2.048-2.034v-2.543h2.048
			h4.357v3.929c0,0.637,0.521,1.155,1.164,1.155h14.232c0.64,0,1.161-0.519,1.161-1.155v-20.02
			C56.147,16.085,55.626,15.569,54.986,15.569z M46.873,16.581h1.991c0.094,0,0.163,0.072,0.163,0.161
			c0,0.09-0.069,0.161-0.163,0.161h-1.991c-0.089,0-0.164-0.071-0.164-0.161C46.709,16.653,46.784,16.581,46.873,16.581z
			 M12.729,23.026h1.943c0.073,0,0.131,0.059,0.131,0.125c0,0.073-0.058,0.128-0.131,0.128h-1.943c-0.07,0-0.131-0.055-0.131-0.128
			C12.598,23.085,12.658,23.026,12.729,23.026z M13.699,37.093c-0.296,0-0.538-0.237-0.538-0.535c0-0.296,0.242-0.535,0.538-0.535
			c0.297,0,0.541,0.239,0.541,0.535C14.24,36.855,13.996,37.093,13.699,37.093z M16.915,35.219h-0.271h-5.891h-0.267V23.957h0.267
			h5.891h0.271V35.219z M39.59,16.724v12.021H17.725V23.15c0-0.444-0.366-0.802-0.81-0.802h-2.134V11.455h27.606v4.114h-1.634
			C40.111,15.569,39.59,16.085,39.59,16.724z M47.869,37.132c-0.429,0-0.775-0.35-0.775-0.773s0.347-0.77,0.775-0.77
			c0.428,0,0.774,0.346,0.774,0.77S48.297,37.132,47.869,37.132z M54.309,34.815H41.427V17.878h12.882V34.815z"/>
	</g>
</g>
</svg>
