<?xml version="1.0" encoding="utf-8"?>
<!DOCTYPE svg PUBLIC "-//W3C//DTD SVG 1.1//EN" "http://www.w3.org/Graphics/SVG/1.1/DTD/svg11.dtd">
<svg version="1.1" id="icon_wallet" xmlns="http://www.w3.org/2000/svg" xmlns:xlink="http://www.w3.org/1999/xlink" x="0px" y="0px" width="41px" height="36px" enable-background="new 0 0 41 36" xml:space="preserve">
<g>
	<g>
		<path fill="#FFFFFF" d="M11.028,25.303L5.709,15.248c-0.786-1.487-6.421,1.224-5.634,2.715l8.129,15.376
			c0.536,1.017,1.626,1.655,2.816,1.657h0.003c1.19,0,2.28-0.639,2.817-1.651l1.661-3.171l-3.534-6.675L11.028,25.303z
			 M26.585,9.319c0.787-1.491-4.847-4.2-5.633-2.713l-4.324,8.097l3.537,6.669L26.585,9.319z M34.28,0.432L21.106,25.272
			l-7.502-14.141c-0.786-1.487-6.421,1.223-5.632,2.712l10.309,19.465c0.535,1.013,1.624,1.653,2.817,1.653h0.002
			c1.189,0,2.28-0.639,2.816-1.649L39.913,3.146C40.702,1.656,35.067-1.055,34.28,0.432z"/>
	</g>
</g>
</svg>
